<!-- Generated by IcoMoon.io -->
<svg version="1.1" xmlns="http://www.w3.org/2000/svg" width="32" height="32" viewBox="0 0 32 32">
<path fill="#d84343" d="M26.815 25.912c-1.566 0-2.841-1.274-2.841-2.841s1.274-2.841 2.841-2.841 2.841 1.274 2.841 2.841c0 1.567-1.274 2.841-2.841 2.841zM26.815 21.284c-0.985 0-1.787 0.802-1.787 1.787s0.802 1.787 1.787 1.787 1.787-0.802 1.787-1.787c0-0.985-0.802-1.787-1.787-1.787z"></path>
<path fill="#d84343" d="M7.182 25.912c-1.566 0-2.841-1.274-2.841-2.841s1.274-2.841 2.841-2.841 2.841 1.274 2.841 2.841c0 1.567-1.274 2.841-2.841 2.841zM7.182 21.284c-0.985 0-1.787 0.802-1.787 1.787s0.802 1.787 1.787 1.787 1.787-0.802 1.787-1.787c0-0.985-0.802-1.787-1.787-1.787z"></path>
<path fill="#d84343" d="M26.815 24.124c-0.067 0-0.137-0.007-0.204-0.021-0.070-0.014-0.137-0.035-0.2-0.060s-0.123-0.060-0.179-0.095c-0.060-0.039-0.112-0.084-0.162-0.133s-0.091-0.102-0.13-0.158c-0.038-0.060-0.070-0.119-0.098-0.183s-0.046-0.13-0.060-0.197c-0.014-0.070-0.021-0.137-0.021-0.207s0.007-0.137 0.021-0.207c0.014-0.067 0.032-0.133 0.060-0.197s0.060-0.123 0.098-0.18c0.039-0.060 0.081-0.112 0.13-0.162 0.39-0.393 1.099-0.393 1.489 0 0.197 0.197 0.309 0.467 0.309 0.745 0 0.070-0.007 0.137-0.021 0.207-0.014 0.067-0.032 0.133-0.060 0.197-0.024 0.063-0.060 0.123-0.098 0.183-0.035 0.056-0.081 0.109-0.13 0.158s-0.102 0.095-0.158 0.133c-0.060 0.035-0.119 0.070-0.183 0.095s-0.13 0.046-0.197 0.060c-0.070 0.014-0.137 0.021-0.207 0.021z"></path>
<path fill="#d84343" d="M7.183 24.124c-0.070 0-0.141-0.007-0.207-0.021s-0.133-0.032-0.197-0.060c-0.063-0.025-0.126-0.060-0.183-0.098-0.056-0.035-0.112-0.081-0.158-0.13-0.197-0.197-0.309-0.467-0.309-0.745s0.112-0.548 0.306-0.745c0.393-0.393 1.099-0.393 1.493 0 0.197 0.197 0.309 0.467 0.309 0.745s-0.112 0.548-0.309 0.745-0.471 0.309-0.745 0.309z"></path>
<path fill="#d84343" d="M30.867 17.686l-3.409-1.571-3.393-4.082c-0.091-0.11-0.188-0.213-0.289-0.31h0.495c0.909 0 1.649-0.74 1.649-1.649v-2.371c0-0.909-0.74-1.649-1.649-1.649h-22.445c-0.91 0-1.649 0.74-1.649 1.649v13.956c0 1.074 0.874 1.948 1.95 1.948l1.557-0.005c-0.026-0.174-0.044-0.35-0.044-0.531 0-1.954 1.589-3.543 3.543-3.543s3.543 1.589 3.543 3.543c0 0.18-0.018 0.354-0.044 0.527h12.634c-0.026-0.172-0.044-0.347-0.044-0.527 0-1.954 1.589-3.543 3.543-3.543s3.543 1.589 3.543 3.543c0 0.182-0.018 0.36-0.045 0.534l0.225 0.001c0.689 0 1.25-0.561 1.25-1.25v-3.232c0-0.616-0.361-1.181-0.921-1.439zM10.023 13.317c0 0.595-0.484 1.079-1.079 1.079h-5.018c-0.595 0-1.079-0.484-1.079-1.079v-1.508c0-0.595 0.484-1.079 1.079-1.079h5.018c0.595 0 1.079 0.484 1.079 1.079v1.508zM20.254 16.017c-0.112 0-0.203-0.091-0.203-0.203v-4.091h1.105c0.813 0 1.578 0.359 2.098 0.984l2.751 3.31h-5.751z"></path>
</svg>
